<svg width="260" height="113" viewBox="0 0 260 113" fill="none" xmlns="http://www.w3.org/2000/svg">
<path d="M39.5 95.5L1.64153 26.9714C0.905129 25.6384 1.86694 24 3.3898 24H24.0044C24.8912 24 25.6721 24.584 25.9228 25.4346L39.5 71.5L52.0971 25.472C52.335 24.6028 53.1249 24 54.0262 24H74.6516C76.1649 24 77.1278 25.6198 76.4103 26.9523L39.5 95.5Z" fill="url(#paint0_linear_72_4)"/>
<path d="M88.3906 88C87.1927 88 86.151 87.5573 85.2656 86.6719C84.3802 85.7865 83.9375 84.7448 83.9375 83.5469V35.4219C83.9375 34.224 84.3802 33.1823 85.2656 32.2969C86.151 31.4115 87.1927 30.9688 88.3906 30.9688H125.891C127.089 30.9688 128.13 31.4115 129.016 32.2969C129.901 33.1823 130.344 34.224 130.344 35.4219V83.5469C130.344 84.7448 129.901 85.7865 129.016 86.6719C128.13 87.5573 127.089 88 125.891 88H121.438C120.24 88 119.198 87.5573 118.312 86.6719C117.479 85.7865 117.062 84.7448 117.062 83.5469V42.2969C117.062 41.8802 116.828 41.6719 116.359 41.6719H97.9219C97.4531 41.6719 97.2188 41.8802 97.2188 42.2969V83.5469C97.2188 84.7448 96.776 85.7865 95.8906 86.6719C95.0573 87.5573 94.0417 88 92.8438 88H88.3906ZM150.044 87.375L136.138 51.5156C135.721 50.526 135.799 49.5885 136.372 48.7031C136.997 47.8177 137.856 47.375 138.95 47.375H143.95C145.2 47.375 146.346 47.7917 147.388 48.625C148.429 49.4062 149.132 50.4219 149.497 51.6719L155.981 75.9688C155.981 76.0208 156.007 76.0469 156.059 76.0469C156.111 76.0469 156.138 76.0208 156.138 75.9688L163.247 51.5938C163.559 50.3438 164.236 49.3281 165.278 48.5469C166.372 47.7656 167.596 47.375 168.95 47.375H173.325C174.419 47.375 175.252 47.8177 175.825 48.7031C176.45 49.5885 176.58 50.526 176.216 51.5156L162.544 88.5469C160.408 94.276 157.726 98.4688 154.497 101.125C151.268 103.781 146.919 105.344 141.45 105.812C140.2 105.917 139.106 105.552 138.169 104.719C137.231 103.885 136.71 102.844 136.606 101.594L136.528 100.812C136.372 99.6667 136.684 98.651 137.466 97.7656C138.299 96.8802 139.315 96.3594 140.513 96.2031C143.169 95.8906 145.2 95.1354 146.606 93.9375C148.065 92.7917 149.21 91.0208 150.044 88.625C150.096 88.4167 150.122 88.2083 150.122 88C150.122 87.7917 150.096 87.5833 150.044 87.375ZM182.791 56.9062C181.593 56.9062 180.551 56.4635 179.666 55.5781C178.832 54.6927 178.416 53.651 178.416 52.4531V51.8281C178.416 50.6302 178.832 49.5885 179.666 48.7031C180.551 47.8177 181.593 47.375 182.791 47.375H212.478C213.676 47.375 214.692 47.8177 215.525 48.7031C216.41 49.5885 216.853 50.6302 216.853 51.8281V52.4531C216.853 53.651 216.41 54.6927 215.525 55.5781C214.692 56.4635 213.676 56.9062 212.478 56.9062H204.822C204.405 56.9062 204.197 57.1406 204.197 57.6094V83.5469C204.197 84.7448 203.754 85.7865 202.869 86.6719C201.983 87.5573 200.942 88 199.744 88H195.525C194.327 88 193.285 87.5573 192.4 86.6719C191.515 85.7865 191.072 84.7448 191.072 83.5469V57.6094C191.072 57.1406 190.864 56.9062 190.447 56.9062H182.791ZM234.522 67.6094V78.7812C234.522 79.3021 234.704 79.5885 235.069 79.6406C235.85 79.849 236.735 79.9531 237.725 79.9531C240.329 79.9531 242.23 79.3802 243.428 78.2344C244.626 77.0885 245.225 75.3177 245.225 72.9219C245.225 70.8906 244.574 69.3281 243.272 68.2344C242.022 67.0885 240.147 66.5156 237.647 66.5156C237.022 66.5156 236.189 66.6198 235.147 66.8281C234.73 66.9323 234.522 67.1927 234.522 67.6094ZM226.319 88.2344C225.069 88.0781 224.027 87.5312 223.194 86.5938C222.413 85.6042 222.022 84.4583 222.022 83.1562V51.8281C222.022 50.6302 222.439 49.5885 223.272 48.7031C224.157 47.8177 225.199 47.375 226.397 47.375H230.069C231.267 47.375 232.308 47.8177 233.194 48.7031C234.079 49.5885 234.522 50.6302 234.522 51.8281V57.4531C234.522 57.6094 234.574 57.7656 234.678 57.9219C234.782 58.026 234.913 58.0521 235.069 58C236.319 57.7917 237.829 57.6875 239.6 57.6875C245.173 57.6875 249.496 59.0677 252.569 61.8281C255.642 64.5365 257.178 68.2344 257.178 72.9219C257.178 78.2865 255.511 82.2708 252.178 84.875C248.845 87.4792 243.61 88.7812 236.475 88.7812C232.777 88.7812 229.392 88.599 226.319 88.2344Z" fill="#5A5D76"/>
<defs>
<linearGradient id="paint0_linear_72_4" x1="7.02" y1="26.86" x2="71.8395" y2="97.5722" gradientUnits="userSpaceOnUse">
<stop stop-color="#5E5BF9"/>
<stop offset="1" stop-color="#FFAF66"/>
</linearGradient>
</defs>
</svg>
